# xmcd
#
# Track frame offsets:
#	150
#	13860
#	24624
#	37462
#	46733
#	58568
#	70904
#	81809
#	94058
#	105116
#	117173
#	130214
#	141929
#	155465
#	166865
#	178800
#	189666
#	203472
#	214284
#	227718
#	239667
#	250350
#	261834
#	274227
#	284838
#	295419
#	306624
#	318324
#
# Disc length: 4362 seconds
#
# Revision: 1
# Processed by: cddbd v1.5.2PL0 Copyright (c) Steve Scherf et al.
# Submitted via: audiograbber 1.83.01
#
DISCID=ae11081c
DTITLE=Various Artist - Dim Lights, Thick Smoke And Hillbilly Music Country and 
DTITLE=Western Hit Parade 1954
DYEAR=1954
DGENRE=Country
TTITLE0=Stuart Hamblen - This Ole House
TTITLE1=Slim Whitman - Rose Marie
TTITLE2=Jim Reeves - Bimbo
TTITLE3=Johnny and Jack - Oh Baby Mine (I Get So Lonely)
TTITLE4=Eddy Arnold - I Really Don't Want To Know
TTITLE5=Ray Price - Release Me
TTITLE6=Wade Ray - Idaho Red
TTITLE7=Webb Pierce - Slowly
TTITLE8=The Browns - Looking Back To See
TTITLE9=Little Jimmy Dickens - Take Me As I Am (Or Let Me Go)
TTITLE10=Carl Butler - - I Wouldn't Change You If I Could
TTITLE11=Tommy Collins - You Better Not Do That
TTITLE12=Red Foley and Kitty Wells - One By One
TTITLE13=Ray Price - - I'll Be There (If You Ever Want Me)
TTITLE14=Roy Acuff - Closed My Heart's Door
TTITLE15=Faron Young - If You Ain't Lovin (You Ain't Livin')
TTITLE16=Hank Snow - I Don't Hurt Anymore
TTITLE17=Al Terry - Good Deal, Lucille
TTITLE18=Webb Pierce and The Wilburn Brothers - Sparkling Brown Eyes
TTITLE19=Jimmy Newman - Cry, Cry Darling
TTITLE20=Sonny Burns - Too Hot To Handle
TTITLE21=Jimmy Lee and Johnny Mathis - If You Don't Somebody Else Will
TTITLE22=She Wooley - Blue Guitar
TTITLE23=Ernest Tubb - Two Glasses Joe
TTITLE24=Terry Fell - Truck Drivin' Man
TTITLE25=Eddie Noack - Take It Away, Lucky
TTITLE26=Carl Smith - Loose Talk
TTITLE27=Elvis Presley - Scotty and Bill - That's All Right
EXTD=
EXTT0=
EXTT1=
EXTT2=
EXTT3=
EXTT4=
EXTT5=
EXTT6=
EXTT7=
EXTT8=
EXTT9=
EXTT10=
EXTT11=
EXTT12=
EXTT13=
EXTT14=
EXTT15=
EXTT16=
EXTT17=
EXTT18=
EXTT19=
EXTT20=
EXTT21=
EXTT22=
EXTT23=
EXTT24=
EXTT25=
EXTT26=
EXTT27=
PLAYORDER=
